<?xml version="1.0" encoding="utf-8"?>
<!-- Generator: Adobe Illustrator 26.5.0, SVG Export Plug-In . SVG Version: 6.00 Build 0)  -->
<svg version="1.1" id="b" xmlns="http://www.w3.org/2000/svg" xmlns:xlink="http://www.w3.org/1999/xlink" x="0px" y="0px" viewBox="0 0 80 58.8" style="enable-background: new 0 0 80 58.8" xml:space="preserve">
<style>.st0 {
  fill: #fff;
}

</style>
<g id="c">
	<g>
		<path class="st0" d="M16.4,28.6l0,8.6c0,0.2,0.2,0.4,0.4,0.4l3.2,0c0.2,0,0.4-0.2,0.4-0.4l0-16.8c0-0.2-0.1-0.4-0.4-0.4l-3.8,0
			c-0.2,0-0.4,0.1-0.4,0.3l-3.7,8.5c-0.1,0.2-0.4,0.2-0.4,0l-3.4-8.5c-0.1-0.2-0.2-0.3-0.4-0.3l-3.6,0c-0.2,0-0.4,0.2-0.4,0.4
			l0,16.8c0,0.2,0.1,0.4,0.4,0.4l3.2,0c0.2,0,0.4-0.2,0.4-0.4l0-8.6c0-0.1,0.1-0.1,0.2,0l3,7.7c0.1,0.2,0.2,0.3,0.4,0.3l1.2,0
			c0.2,0,0.4-0.1,0.4-0.3l3.2-7.8C16.2,28.5,16.4,28.5,16.4,28.6L16.4,28.6z"></path>
		<path class="st0" d="M26,25.2l-3.2,0c-0.2,0-0.4,0.2-0.4,0.4l0,11.7c0,0.2,0.2,0.4,0.4,0.4l3.2,0c0.2,0,0.4-0.2,0.4-0.4l0-11.7
			C26.4,25.4,26.3,25.2,26,25.2L26,25.2z"></path>
		<path class="st0" d="M24.5,19.1c-1.2,0-2.1,0.9-2.1,2.1c0,1.2,0.8,2.1,2.1,2.1c1.2,0,2.1-0.9,2.1-2.1
			C26.6,19.9,25.8,19.1,24.5,19.1L24.5,19.1z"></path>
		<path class="st0" d="M41.5,37.2l0-11.3c0-0.2-0.2-0.4-0.4-0.4l-2.9,0c-0.2,0-0.4,0.2-0.4,0.4l0,1c0,0-0.1,0.1-0.1,0
			c-0.8-1-2-1.7-3.7-1.7c-3.5,0-5.8,2.6-5.8,6.2c0,3.7,2.3,6.3,5.8,6.3c1.5,0,2.7-0.5,3.5-1.3c0.1-0.1,0.2,0,0.2,0.1v0.8
			c0,2.1-1.7,2.8-3.3,2.8c-1.1,0-2.1-0.3-3.3-0.9c-0.3-0.2-0.5-0.1-0.7,0.2l-0.8,1.6c-0.2,0.3-0.1,0.6,0.1,0.8c1.3,1,3.1,1.5,5,1.5
			C37.9,43.1,41.5,41.8,41.5,37.2L41.5,37.2z M34.9,34.2c-1.6,0-2.8-1.1-2.8-2.8c0-1.7,1.2-2.7,2.8-2.8c1.6,0,2.7,1.1,2.8,2.7
			C37.6,33.1,36.5,34.2,34.9,34.2L34.9,34.2z"></path>
		<path class="st0" d="M79.6,25.2l-3.2,0c-0.2,0-0.4,0.1-0.5,0.3l-2.6,7.3c0,0.1-0.2,0.1-0.3,0l-2.6-7.3c-0.1-0.2-0.3-0.3-0.5-0.3
			l-3.2,0c-0.3,0-0.4,0.2-0.3,0.4l4.7,11.8c0.1,0.2,0.1,0.3,0,0.5l-1.7,4.1c-0.1,0.3,0,0.5,0.3,0.5l3,0c0.2,0,0.4-0.1,0.5-0.3
			L80,25.6C80.1,25.4,79.9,25.2,79.6,25.2L79.6,25.2z"></path>
		<path class="st0" d="M42.7,54.7l-1.6-1.2l0,0c-0.2-0.1-0.4-0.2-0.6,0.1c-0.8,0.9-1.5,1.5-2.3,1.8c-1.6,0.6-3,0.3-4-0.8l6.7-2.5
			c1.3-0.5,1.1-1.6,0.7-2.5c-0.6-1.5-1.7-2.7-3.2-3.3c-1.5-0.7-3.3-0.7-4.8-0.1c-1.5,0.6-2.7,1.8-3.3,3.4c-0.6,1.5-0.6,3.2-0.1,4.8
			c0.6,1.8,1.7,3.1,3.2,3.8c0.9,0.4,1.8,0.6,2.8,0.6c0.7,0,1.4-0.1,2.2-0.3c2-0.5,3-1.6,4.2-3l0,0C43,55.1,43,54.9,42.7,54.7
			L42.7,54.7z M33.3,52c-0.2-1.6,0.5-2.9,1.9-3.4c0.3-0.1,0.6-0.1,0.9-0.1c1,0,2.2,0.6,2.7,1.5L33.3,52L33.3,52z"></path>
		<path class="st0" d="M31.3,16.7c0.9,0.4,1.8,0.6,2.8,0.6c0.7,0,1.4-0.1,2.1-0.3c2-0.5,3-1.6,4.2-3l0,0c0.2-0.2,0.1-0.5-0.1-0.7
			l-1.6-1.2l0,0c-0.2-0.1-0.4-0.2-0.6,0.1c-0.8,0.9-1.5,1.5-2.3,1.8c-1.6,0.6-3,0.3-3.9-0.8l6.7-2.5c1.3-0.5,1.1-1.6,0.7-2.5
			c-0.5-1.5-1.7-2.6-3.2-3.3c-1.5-0.7-3.3-0.7-4.8-0.1c-1.5,0.6-2.7,1.8-3.3,3.4c-0.6,1.5-0.6,3.2-0.1,4.8
			C28.7,14.7,29.8,16,31.3,16.7L31.3,16.7z M32.9,7.3c0.3-0.1,0.6-0.1,0.9-0.1c1,0,2.1,0.6,2.7,1.5L31,10.6
			C30.8,9.1,31.5,7.8,32.9,7.3L32.9,7.3z"></path>
		<path class="st0" d="M59.8,54.6c-1.1,0-2,0.9-2,2c0,1.1,0.9,2,2,2c1.1,0,2-0.9,2-2C61.8,55.5,60.9,54.6,59.8,54.6L59.8,54.6z"></path>
		<path class="st0" d="M10.8,48.2L9,47.4c-1.3-0.6-2.1-0.9-2.1-1.9c0-0.9,0.7-1.5,1.9-1.5c1.1,0,1.9,0.4,3.1,1.4
			c0.2,0.1,0.4,0.1,0.6-0.1l1.7-2c0.2-0.2,0.1-0.4,0-0.6c-1.5-1.6-3.3-2.4-5.5-2.4c-3.2,0-5.8,1.8-5.8,5.2c0,2.8,1.8,4.2,3.8,5
			l2.2,1c1.2,0.5,1.9,0.9,1.9,1.9c0,1.1-0.9,1.7-2.3,1.7c-1.4,0-2.4-0.6-3.6-1.7c-0.2-0.2-0.4-0.1-0.6,0.1l-1.8,2
			c-0.2,0.2-0.2,0.4-0.1,0.6c1.1,1.4,3.2,2.9,6.1,2.9c3.1,0,6.3-1.6,6.3-5.4C14.9,50.3,12.8,49.1,10.8,48.2L10.8,48.2z"></path>
		<path class="st0" d="M56.1,41l-3-0.8c-0.3-0.1-0.4,0.1-0.4,0.4l0,6.2c0,0.2-0.2,0.2-0.3,0.1c-0.8-0.8-1.9-1.2-3.3-1.2
			c-3.4,0-5.8,2.9-5.8,6.6c0,3.7,2.4,6.6,5.8,6.6c1.6,0,2.7-0.6,3.6-1.5c0.1-0.1,0.3-0.1,0.3,0.1l0,0.8c0,0.2,0.2,0.4,0.4,0.4l2.8,0
			c0.2,0,0.4-0.2,0.4-0.4l0-16.5C56.6,41.2,56.5,41,56.1,41L56.1,41z M50,55.2c-1.6,0-2.9-1.2-2.9-3c0-1.8,1.2-3,2.9-3
			c1.7,0,2.8,1.2,2.8,3C52.8,54,51.7,55.2,50,55.2z"></path>
		<path class="st0" d="M64.9,34.5c-0.3,0-0.6,0-0.8,0c-0.6,0-1.1-0.4-1.1-1l0-5.4l1.9,0c0.2,0,0.4-0.2,0.4-0.4l0-2.2
			c0-0.2-0.2-0.4-0.4-0.4l-1.9,0l0-2.9c0-0.2-0.2-0.4-0.4-0.4l-3.1,0c-0.2,0-0.4,0.2-0.4,0.4l0,2.9l-1.6,0c-0.2,0-0.4,0.2-0.4,0.4
			l0,2.2c0,0.2,0.2,0.4,0.4,0.4l1.6,0l0,5.8c0,2.9,2,3.8,4,3.8c0.9,0,2.2-0.2,2.2-0.8l0-2.1C65.4,34.6,65.2,34.5,64.9,34.5
			L64.9,34.5z"></path>
		<path class="st0" d="M4,3.9l0.1,12.9c0,0.2,0.2,0.4,0.4,0.4l3.4,0c0.2,0,0.4-0.2,0.4-0.4L8.3,3.9c0-0.2,0.1-0.3,0.3-0.3l3.3,0
			c0.2,0,0.4-0.2,0.4-0.4l0-2.8c0-0.2-0.2-0.4-0.4-0.4L0.4,0C0.2,0,0,0.2,0,0.4l0,2.8c0,0.2,0.2,0.4,0.4,0.4l3.3,0
			C3.9,3.6,4,3.7,4,3.9L4,3.9z"></path>
		<path class="st0" d="M14.4,17.1h3c0.5,0,0.5-0.3,0.5-0.6v-6.3c0-1.7,1-2.6,2.3-2.6s2.3,1,2.3,2.5v6.4c0,0.2,0,0.6,0.4,0.6H26
			c0.4,0,0.4-0.4,0.4-0.6v-6.3c0-2.7-1.4-5.9-5.5-5.9c-1.2,0-2.3,0.4-3,0.8V0.5c0-0.1,0-0.5-0.5-0.5h-3.1c-0.5,0-0.5,0.4-0.5,0.5v16
			C13.8,16.8,13.8,17.1,14.4,17.1z"></path>
		<path class="st0" d="M44.3,37.7h3c0.5,0,0.5-0.3,0.5-0.6v-6.3c0-1.7,1-2.5,2.3-2.5c1.3,0,2.4,1,2.4,2.4v6.4c0,0.2,0,0.6,0.4,0.6
			h3.1c0.4,0,0.4-0.4,0.4-0.6v-6.3c0-2.7-1.5-5.9-5.7-5.9c-1.2,0-2.3,0.4-3,0.8v-5.5c0-0.1,0.1-0.8-0.6-0.5l-3.1,1
			c-0.4,0.1-0.5,0.4-0.5,0.6v15.9C43.8,37.5,43.8,37.7,44.3,37.7L44.3,37.7z"></path>
		<path class="st0" d="M29,51.5c0-2.7-1.5-5.9-5.6-5.9c-1.2,0-2.3,0.4-3,0.8v-5.5c0-0.1,0-0.5-0.5-0.5l-3.1,1
			c-0.4,0.1-0.5,0.4-0.5,0.6v15.9c0,0.3,0.1,0.6,0.6,0.6h3c0.5,0,0.5-0.3,0.5-0.6v-6.3c0-1.7,1-2.5,2.3-2.5c1.4,0,2.3,1,2.3,2.4v6.4
			c0,0.2,0,0.6,0.4,0.6h3.2c0.4,0,0.4-0.4,0.4-0.6L29,51.5L29,51.5z"></path>
	</g>
</g>
</svg>
