<svg version="1.1" id="b" xmlns="http://www.w3.org/2000/svg" x="0" y="0" viewBox="0 0 80 58.8" style="enable-background:new 0 0 80 58.8" xml:space="preserve"><style>.st0{fill:#fff}</style><g id="c"><path class="st0" d="M16.4 28.6v8.6c0 .2.2.4.4.4H20c.2 0 .4-.2.4-.4V20.4c0-.2-.1-.4-.4-.4h-3.8c-.2 0-.4.1-.4.3l-3.7 8.5c-.1.2-.4.2-.4 0l-3.4-8.5c-.1-.2-.2-.3-.4-.3H4.3c-.2 0-.4.2-.4.4v16.8c0 .2.1.4.4.4h3.2c.2 0 .4-.2.4-.4v-8.6c0-.1.1-.1.2 0l3 7.7c.1.2.2.3.4.3h1.2c.2 0 .4-.1.4-.3l3.2-7.8c-.1 0 .1 0 .1.1zM26 25.2h-3.2c-.2 0-.4.2-.4.4v11.7c0 .2.2.4.4.4H26c.2 0 .4-.2.4-.4V25.6c0-.2-.1-.4-.4-.4zM24.5 19.1c-1.2 0-2.1.9-2.1 2.1 0 1.2.8 2.1 2.1 2.1 1.2 0 2.1-.9 2.1-2.1 0-1.3-.8-2.1-2.1-2.1zM41.5 37.2V25.9c0-.2-.2-.4-.4-.4h-2.9c-.2 0-.4.2-.4.4v1s-.1.1-.1 0c-.8-1-2-1.7-3.7-1.7-3.5 0-5.8 2.6-5.8 6.2 0 3.7 2.3 6.3 5.8 6.3 1.5 0 2.7-.5 3.5-1.3.1-.1.2 0 .2.1v.8c0 2.1-1.7 2.8-3.3 2.8-1.1 0-2.1-.3-3.3-.9-.3-.2-.5-.1-.7.2l-.8 1.6c-.2.3-.1.6.1.8 1.3 1 3.1 1.5 5 1.5 3.2-.2 6.8-1.5 6.8-6.1zm-6.6-3c-1.6 0-2.8-1.1-2.8-2.8 0-1.7 1.2-2.7 2.8-2.8 1.6 0 2.7 1.1 2.8 2.7-.1 1.8-1.2 2.9-2.8 2.9zM79.6 25.2h-3.2c-.2 0-.4.1-.5.3l-2.6 7.3c0 .1-.2.1-.3 0l-2.6-7.3c-.1-.2-.3-.3-.5-.3h-3.2c-.3 0-.4.2-.3.4l4.7 11.8c.1.2.1.3 0 .5L69.4 42c-.1.3 0 .5.3.5h3c.2 0 .4-.1.5-.3L80 25.6c.1-.2-.1-.4-.4-.4zM42.7 54.7l-1.6-1.2c-.2-.1-.4-.2-.6.1-.8.9-1.5 1.5-2.3 1.8-1.6.6-3 .3-4-.8l6.7-2.5c1.3-.5 1.1-1.6.7-2.5-.6-1.5-1.7-2.7-3.2-3.3-1.5-.7-3.3-.7-4.8-.1s-2.7 1.8-3.3 3.4c-.6 1.5-.6 3.2-.1 4.8.6 1.8 1.7 3.1 3.2 3.8.9.4 1.8.6 2.8.6.7 0 1.4-.1 2.2-.3 2-.5 3-1.6 4.2-3 .4-.4.4-.6.1-.8zM33.3 52c-.2-1.6.5-2.9 1.9-3.4.3-.1.6-.1.9-.1 1 0 2.2.6 2.7 1.5l-5.5 2zM31.3 16.7c.9.4 1.8.6 2.8.6.7 0 1.4-.1 2.1-.3 2-.5 3-1.6 4.2-3 .2-.2.1-.5-.1-.7l-1.6-1.2c-.2-.1-.4-.2-.6.1-.8.9-1.5 1.5-2.3 1.8-1.6.6-3 .3-3.9-.8l6.7-2.5c1.3-.5 1.1-1.6.7-2.5-.5-1.5-1.7-2.6-3.2-3.3-1.5-.7-3.3-.7-4.8-.1S28.6 6.6 28 8.2c-.6 1.5-.6 3.2-.1 4.8.8 1.7 1.9 3 3.4 3.7zm1.6-9.4c.3-.1.6-.1.9-.1 1 0 2.1.6 2.7 1.5L31 10.6c-.2-1.5.5-2.8 1.9-3.3zM59.8 54.6c-1.1 0-2 .9-2 2s.9 2 2 2 2-.9 2-2-.9-2-2-2zM10.8 48.2 9 47.4c-1.3-.6-2.1-.9-2.1-1.9 0-.9.7-1.5 1.9-1.5 1.1 0 1.9.4 3.1 1.4.2.1.4.1.6-.1l1.7-2c.2-.2.1-.4 0-.6-1.5-1.6-3.3-2.4-5.5-2.4-3.2 0-5.8 1.8-5.8 5.2 0 2.8 1.8 4.2 3.8 5l2.2 1c1.2.5 1.9.9 1.9 1.9 0 1.1-.9 1.7-2.3 1.7s-2.4-.6-3.6-1.7c-.2-.2-.4-.1-.6.1l-1.8 2c-.2.2-.2.4-.1.6C3.5 57.5 5.6 59 8.5 59c3.1 0 6.3-1.6 6.3-5.4.1-3.3-2-4.5-4-5.4zM56.1 41l-3-.8c-.3-.1-.4.1-.4.4v6.2c0 .2-.2.2-.3.1-.8-.8-1.9-1.2-3.3-1.2-3.4 0-5.8 2.9-5.8 6.6 0 3.7 2.4 6.6 5.8 6.6 1.6 0 2.7-.6 3.6-1.5.1-.1.3-.1.3.1v.8c0 .2.2.4.4.4h2.8c.2 0 .4-.2.4-.4V41.8c0-.6-.1-.8-.5-.8zM50 55.2c-1.6 0-2.9-1.2-2.9-3s1.2-3 2.9-3 2.8 1.2 2.8 3-1.1 3-2.8 3zM64.9 34.5h-.8c-.6 0-1.1-.4-1.1-1v-5.4h1.9c.2 0 .4-.2.4-.4v-2.2c0-.2-.2-.4-.4-.4H63v-2.9c0-.2-.2-.4-.4-.4h-3.1c-.2 0-.4.2-.4.4v2.9h-1.6c-.2 0-.4.2-.4.4v2.2c0 .2.2.4.4.4h1.6v5.8c0 2.9 2 3.8 4 3.8.9 0 2.2-.2 2.2-.8v-2.1c.1-.2-.1-.3-.4-.3zM4 3.9l.1 12.9c0 .2.2.4.4.4h3.4c.2 0 .4-.2.4-.4V3.9c0-.2.1-.3.3-.3h3.3c.2 0 .4-.2.4-.4V.4c0-.2-.2-.4-.4-.4H.4C.2 0 0 .2 0 .4v2.8c0 .2.2.4.4.4h3.3c.2 0 .3.1.3.3zM14.4 17.1h3c.5 0 .5-.3.5-.6v-6.3c0-1.7 1-2.6 2.3-2.6s2.3 1 2.3 2.5v6.4c0 .2 0 .6.4.6H26c.4 0 .4-.4.4-.6v-6.3c0-2.7-1.4-5.9-5.5-5.9-1.2 0-2.3.4-3 .8V.5c0-.1 0-.5-.5-.5h-3.1c-.5 0-.5.4-.5.5v16c0 .3 0 .6.6.6zM44.3 37.7h3c.5 0 .5-.3.5-.6v-6.3c0-1.7 1-2.5 2.3-2.5 1.3 0 2.4 1 2.4 2.4v6.4c0 .2 0 .6.4.6H56c.4 0 .4-.4.4-.6v-6.3c0-2.7-1.5-5.9-5.7-5.9-1.2 0-2.3.4-3 .8v-5.5c0-.1.1-.8-.6-.5l-3.1 1c-.4.1-.5.4-.5.6v15.9c.3.3.3.5.8.5zM29 51.5c0-2.7-1.5-5.9-5.6-5.9-1.2 0-2.3.4-3 .8v-5.5c0-.1 0-.5-.5-.5l-3.1 1c-.4.1-.5.4-.5.6v15.9c0 .3.1.6.6.6h3c.5 0 .5-.3.5-.6v-6.3c0-1.7 1-2.5 2.3-2.5 1.4 0 2.3 1 2.3 2.4v6.4c0 .2 0 .6.4.6h3.2c.4 0 .4-.4.4-.6v-6.4z"/></g></svg>